<svg xmlns="http://www.w3.org/2000/svg">
    <symbol id='icon-moon' viewBox="0 0 25 25">
        <path d="M19.9001 2.30719C19.7392 1.8976 19.1616 1.8976 19.0007 2.30719L18.5703 3.40247C18.5212 3.52752 18.4226 3.62651 18.298 3.67583L17.2067 4.1078C16.7986 4.26934 16.7986 4.849 17.2067 5.01054L18.298 5.44252C18.4226 5.49184 18.5212 5.59082 18.5703 5.71587L19.0007 6.81115C19.1616 7.22074 19.7392 7.22074 19.9001 6.81116L20.3305 5.71587C20.3796 5.59082 20.4782 5.49184 20.6028 5.44252L21.6941 5.01054C22.1022 4.849 22.1022 4.26934 21.6941 4.1078L20.6028 3.67583C20.4782 3.62651 20.3796 3.52752 20.3305 3.40247L19.9001 2.30719Z" stroke="#ffffff"></path>
        <path d="M16.0328 8.12967C15.8718 7.72009 15.2943 7.72009 15.1333 8.12967L14.9764 8.52902C14.9273 8.65407 14.8287 8.75305 14.7041 8.80237L14.3062 8.95987C13.8981 9.12141 13.8981 9.70107 14.3062 9.86261L14.7041 10.0201C14.8287 10.0694 14.9273 10.1684 14.9764 10.2935L15.1333 10.6928C15.2943 11.1024 15.8718 11.1024 16.0328 10.6928L16.1897 10.2935C16.2388 10.1684 16.3374 10.0694 16.462 10.0201L16.8599 9.86261C17.268 9.70107 17.268 9.12141 16.8599 8.95987L16.462 8.80237C16.3374 8.75305 16.2388 8.65407 16.1897 8.52902L16.0328 8.12967Z" stroke="#ffffff"></path>
        <path d="M21.0672 11.8568L20.4253 11.469L21.0672 11.8568ZM12.1432 2.93276L11.7553 2.29085V2.29085L12.1432 2.93276ZM21.25 12C21.25 17.1086 17.1086 21.25 12 21.25V22.75C17.9371 22.75 22.75 17.9371 22.75 12H21.25ZM12 21.25C6.89137 21.25 2.75 17.1086 2.75 12H1.25C1.25 17.9371 6.06294 22.75 12 22.75V21.25ZM2.75 12C2.75 6.89137 6.89137 2.75 12 2.75V1.25C6.06294 1.25 1.25 6.06294 1.25 12H2.75ZM15.5 14.25C12.3244 14.25 9.75 11.6756 9.75 8.5H8.25C8.25 12.5041 11.4959 15.75 15.5 15.75V14.25ZM20.4253 11.469C19.4172 13.1373 17.5882 14.25 15.5 14.25V15.75C18.1349 15.75 20.4407 14.3439 21.7092 12.2447L20.4253 11.469ZM9.75 8.5C9.75 6.41182 10.8627 4.5828 12.531 3.57467L11.7553 2.29085C9.65609 3.5593 8.25 5.86509 8.25 8.5H9.75ZM12 2.75C11.9115 2.75 11.8077 2.71008 11.7324 2.63168C11.6686 2.56527 11.6538 2.50244 11.6503 2.47703C11.6461 2.44587 11.6482 2.35557 11.7553 2.29085L12.531 3.57467C13.0342 3.27065 13.196 2.71398 13.1368 2.27627C13.0754 1.82126 12.7166 1.25 12 1.25V2.75ZM21.7092 12.2447C21.6444 12.3518 21.5541 12.3539 21.523 12.3497C21.4976 12.3462 21.4347 12.3314 21.3683 12.2676C21.2899 12.1923 21.25 12.0885 21.25 12H22.75C22.75 11.2834 22.1787 10.9246 21.7237 10.8632C21.286 10.804 20.7293 10.9658 20.4253 11.469L21.7092 12.2447Z" fill="#ffffff"></path>
    </symbol>

    <symbol id='icon-sun' viewBox="0 0 25 25">
        <circle cx="12" cy="12" r="5" stroke="#ffffff" stroke-width="1.5"></circle>
        <path d="M12 2V4" stroke-width="1.5" stroke-linecap="round"></path>
        <path d="M12 20V22" stroke-width="1.5" stroke-linecap="round"></path>
        <path d="M4 12L2 12" stroke-width="1.5" stroke-linecap="round"></path>
        <path d="M22 12L20 12" stroke-width="1.5" stroke-linecap="round"></path>
        <path d="M19.7778 4.22266L17.5558 6.25424" stroke-width="1.5" stroke-linecap="round"></path>
        <path d="M4.22217 4.22266L6.44418 6.25424" stroke-width="1.5" stroke-linecap="round"></path>
        <path d="M6.44434 17.5557L4.22211 19.7779" stroke-width="1.5" stroke-linecap="round"></path>
        <path d="M19.7778 19.7773L17.5558 17.5551" stroke-width="1.5" stroke-linecap="round"></path>
    </symbol>

    <symbol id='icon-circle' viewBox="0 0 25 25">
        <path d="M2 12C2 6.47715 6.47715 2 12 2C17.5228 2 22 6.47715 22 12C22 17.5228 17.5228 22 12 22C6.47715 22 2 17.5228 2 12Z" fill="#ffffff"></path>
    </symbol>

    <symbol id='icon-phone' viewBox="0 0 25 25">
        <path fill="none" d="M3 5.5C3 14.0604 9.93959 21 18.5 21C18.8862 21 19.2691 20.9859 19.6483 20.9581C20.0834 20.9262 20.3009 20.9103 20.499 20.7963C20.663 20.7019 20.8185 20.5345 20.9007 20.364C21 20.1582 21 19.9181 21 19.438V16.6207C21 16.2169 21 16.015 20.9335 15.842C20.8749 15.6891 20.7795 15.553 20.6559 15.4456C20.516 15.324 20.3262 15.255 19.9468 15.117L16.74 13.9509C16.2985 13.7904 16.0777 13.7101 15.8683 13.7237C15.6836 13.7357 15.5059 13.7988 15.3549 13.9058C15.1837 14.0271 15.0629 14.2285 14.8212 14.6314L14 16C11.3501 14.7999 9.2019 12.6489 8 10L9.36863 9.17882C9.77145 8.93713 9.97286 8.81628 10.0942 8.64506C10.2012 8.49408 10.2643 8.31637 10.2763 8.1317C10.2899 7.92227 10.2096 7.70153 10.0491 7.26005L8.88299 4.05321C8.745 3.67376 8.67601 3.48403 8.55442 3.3441C8.44701 3.22049 8.31089 3.12515 8.15802 3.06645C7.98496 3 7.78308 3 7.37932 3H4.56201C4.08188 3 3.84181 3 3.63598 3.09925C3.4655 3.18146 3.29814 3.33701 3.2037 3.50103C3.08968 3.69907 3.07375 3.91662 3.04189 4.35173C3.01413 4.73086 3 5.11378 3 5.5Z" stroke="#fff" stroke-width="2" stroke-linecap="round" stroke-linejoin="round"></path>
    </symbol>

    <symbol id='icon-face' viewBox="0 0 25 25">
        <path fill-rule="evenodd" clip-rule="evenodd" d="M11.9511 5.00023C9.22161 5.02636 7.01518 7.23962 7.00008 9.97177C9.37173 9.36069 11.1149 7.50854 11.9511 5.00023ZM12 15C9.92508 15 8.14536 13.7361 7.3887 11.9362C10.6875 11.1335 12.9473 8.55435 13.928 5.38525C15.7323 6.13994 17 7.92192 17 10C17 12.7614 14.7614 15 12 15ZM18.9995 10.0812C18.9998 10.0542 19 10.0271 19 10C19 6.13401 15.866 3 12 3C8.13401 3 5 6.13401 5 10C5 10.0268 5.00015 10.0536 5.00045 10.0804C5.0002 10.0888 5.00005 10.0972 5 10.1056C4.9954 10.9434 4.99703 12.2057 4.99856 13.3972V13.3972L4.99856 13.3973L4.99856 13.3979C4.99929 13.9659 5 14.5178 5 15C5.00001 15.5523 5.44772 16 6 16H7.48312C5.32577 17.0824 4 18.9333 4 21C4 21.5523 4.44772 22 5 22C5.55228 22 6 21.5523 6 21C6 19.2701 7.93073 17 12 17C16.0693 17 18 19.2701 18 21C18 21.5523 18.4477 22 19 22C19.5523 22 20 21.5523 20 21C20 18.9333 18.6742 17.0824 16.5169 16H18C18.5523 16 19 15.5523 19 15C19 14.5175 19.0007 13.9651 19.0014 13.3966L19.0014 13.3951C19.0029 12.2042 19.0046 10.9429 19 10.1056C18.9999 10.0974 18.9998 10.0893 18.9995 10.0812Z" fill="#fff"></path>
    </symbol>

    <symbol id='icon-mail' viewBox="0 0 25 25">
        <path fill="none" d="M3 8L8.44992 11.6333C9.73295 12.4886 10.3745 12.9163 11.0678 13.0825C11.6806 13.2293 12.3194 13.2293 12.9322 13.0825C13.6255 12.9163 14.2671 12.4886 15.5501 11.6333L21 8M6.2 19H17.8C18.9201 19 19.4802 19 19.908 18.782C20.2843 18.5903 20.5903 18.2843 20.782 17.908C21 17.4802 21 16.9201 21 15.8V8.2C21 7.0799 21 6.51984 20.782 6.09202C20.5903 5.71569 20.2843 5.40973 19.908 5.21799C19.4802 5 18.9201 5 17.8 5H6.2C5.0799 5 4.51984 5 4.09202 5.21799C3.71569 5.40973 3.40973 5.71569 3.21799 6.09202C3 6.51984 3 7.07989 3 8.2V15.8C3 16.9201 3 17.4802 3.21799 17.908C3.40973 18.2843 3.71569 18.5903 4.09202 18.782C4.51984 19 5.07989 19 6.2 19Z" stroke="#fff" stroke-width="2" stroke-linecap="round" stroke-linejoin="round"></path>
    </symbol>

    <symbol id='icon-skills' viewBox="0 0 50 50">
        <path fill="none" d="M21.37 36C22.82 30.75 27.89 27 33.73 27.62C39.29 28.21 43.71 32.9 43.99 38.48C44.06 39.95 43.86 41.36 43.43 42.67C43.17 43.47 42.39 44 41.54 44H11.7584C6.71004 44 2.92371 39.3814 3.91377 34.4311L9.99994 4H21.9999L25.9999 11L17.43 17.13L14.9999 14" stroke="#fff" stroke-width="4" stroke-miterlimit="2" stroke-linecap="round" stroke-linejoin="round"></path>
        <path d="M17.4399 17.13L22 34" stroke="#fff" stroke-width="4" stroke-miterlimit="2" stroke-linecap="round" stroke-linejoin="round"></path>
    </symbol>

    <symbol id='icon-hobbies' viewBox="0 0 25 25">
        <path fill="none" d="M6.00014 11H10.0001M8.00014 9V13M15.0001 12H15.0101M18.0001 10H18.0101M10.4491 5H13.5512C16.1761 5 17.4885 5 18.5187 5.49743C19.4257 5.9354 20.1793 6.63709 20.6808 7.51059C21.2503 8.5027 21.3438 9.81181 21.5309 12.43L21.7769 15.8745C21.8975 17.5634 20.5599 19 18.8667 19C18.0008 19 17.1796 18.6154 16.6253 17.9502L16.2501 17.5C15.907 17.0882 15.7354 16.8823 15.54 16.7159C15.1305 16.3672 14.6346 16.1349 14.1045 16.0436C13.8516 16 13.5836 16 13.0476 16H10.9527C10.4167 16 10.1487 16 9.89577 16.0436C9.36563 16.1349 8.86981 16.3672 8.46024 16.7159C8.26487 16.8823 8.09329 17.0882 7.75013 17.5L7.37497 17.9502C6.82064 18.6154 5.99949 19 5.13359 19C3.44037 19 2.10275 17.5634 2.22339 15.8745L2.46942 12.43C2.65644 9.81181 2.74994 8.5027 3.31951 7.51059C3.82098 6.63709 4.57458 5.9354 5.48159 5.49743C6.51176 5 7.8242 5 10.4491 5Z" stroke="#fff" stroke-width="2" stroke-linecap="round" stroke-linejoin="round"></path>
    </symbol>

    <symbol id='icon-address' viewBox="0 0 25 25">
        <path fill="none" d="M5.7 15C4.03377 15.6353 3 16.5205 3 17.4997C3 19.4329 7.02944 21 12 21C16.9706 21 21 19.4329 21 17.4997C21 16.5205 19.9662 15.6353 18.3 15M12 9H12.01M18 9C18 13.0637 13.5 15 12 18C10.5 15 6 13.0637 6 9C6 5.68629 8.68629 3 12 3C15.3137 3 18 5.68629 18 9ZM13 9C13 9.55228 12.5523 10 12 10C11.4477 10 11 9.55228 11 9C11 8.44772 11.4477 8 12 8C12.5523 8 13 8.44772 13 9Z" stroke="#fff" stroke-width="2" stroke-linecap="round" stroke-linejoin="round"></path>
    </symbol>

    <symbol id='icon-test' viewBox="0 0 25 25">
    </symbol>

</svg>

